# Blender v2.79 (sub 0) OBJ File: ''
# www.blender.org
mtllib Pine01.mtl
o Cone_Cone.001
v 0.000000 2.031481 -1.525103
v 0.000000 8.333595 0.000000
v 1.838735 2.031481 0.000000
v -0.000000 2.031481 1.154021
v -1.409739 2.031481 0.000000
v -2.354810 1.397347 -0.014933
v 2.388482 1.397347 -0.014933
v -2.354810 8.774237 -0.014933
v 2.388482 8.774237 -0.014933
v 0.016836 1.397347 -2.386579
v 0.016836 1.397347 2.356713
v 0.016836 8.774237 -2.386579
v 0.016836 8.774237 2.356713
v -1.660171 1.397347 1.662074
v 1.693843 1.397347 -1.691940
v -1.660171 8.774237 1.662074
v 1.693843 8.774237 -1.691940
v -1.660171 1.397347 -1.691940
v 1.693843 1.397347 1.662074
v -1.660171 8.774237 -1.691940
v 1.693843 8.774237 1.662074
v 0.000000 -0.129653 -0.632201
v 0.000000 0.772454 -0.343379
v 0.601259 -0.129653 -0.195361
v 0.326573 0.772454 -0.106110
v 0.371598 -0.129653 0.511461
v 0.201833 0.772454 0.277800
v -0.371598 -0.129653 0.511461
v -0.201833 0.772454 0.277800
v -0.601259 -0.129653 -0.195361
v -0.326573 0.772454 -0.106110
v 0.205108 2.991662 -0.066644
v 0.000000 2.991662 -0.215664
v 0.126764 2.991662 0.174476
v -0.126764 2.991662 0.174476
v -0.205108 2.991662 -0.066644
v 0.000000 -0.900045 -0.344607
v 0.327741 -0.900045 -0.106490
v 0.202555 -0.900045 0.278793
v -0.202555 -0.900045 0.278793
v -0.327741 -0.900045 -0.106490
v 0.000000 5.955945 0.000000
vt 0.606557 0.645529
vt 0.550560 0.821234
vt 0.500592 0.645619
vt 0.606557 0.645529
vt 0.500592 0.645619
vt 0.606557 0.645529
vt 0.500592 0.645619
vt 0.606557 0.645529
vt 0.500592 0.645619
vt 0.486883 0.634935
vt 0.401267 0.806745
vt 0.401267 0.634935
vt 0.486883 0.634935
vt 0.401267 0.806745
vt 0.401267 0.634935
vt 0.486883 0.634935
vt 0.401267 0.806745
vt 0.401267 0.634935
vt 0.486883 0.634935
vt 0.401267 0.806745
vt 0.401267 0.634935
vt 0.970345 0.102800
vt 0.925747 0.051071
vt 0.981044 0.050338
vt 0.970247 0.102912
vt 0.925632 0.051405
vt 0.981299 0.050433
vt 0.970173 0.102800
vt 0.925575 0.051071
vt 0.980872 0.050338
vt 0.948753 0.231928
vt 0.940179 0.108423
vt 0.970819 0.103169
vt 0.925656 0.050932
vt 0.981279 0.050196
vt 0.970520 0.103369
vt 0.925395 0.051335
vt 0.981084 0.050107
vt 0.966955 0.008419
vt 0.948884 0.231970
vt 0.968426 0.228945
vt 0.962800 0.394435
vt 0.948857 0.231512
vt 0.939993 0.108389
vt 0.948949 0.232110
vt 0.940014 0.108094
vt 0.948777 0.232110
vt 0.939842 0.108094
vt 0.939703 0.107985
vt 0.967077 0.008291
vt 0.966733 0.008159
vt 0.966444 0.008159
vt 0.935316 0.009552
vt 0.967126 0.008419
vt 0.968416 0.228583
vt 0.962926 0.393705
vt 0.968521 0.228826
vt 0.962724 0.393174
vt 0.968244 0.228894
vt 0.962708 0.393897
vt 0.968416 0.228894
vt 0.962880 0.393897
vt 0.486883 0.806745
vt 0.486883 0.806745
vt 0.486883 0.806745
vt 0.486883 0.806745
vt 0.935144 0.009552
vt 0.935528 0.009785
vt 0.935118 0.009280
vt 0.935024 0.009538
vn 0.6276 0.1831 -0.7567
vn 0.5253 0.1533 0.8370
vn -0.6272 0.1403 0.7661
vn -0.7246 0.1621 -0.6698
vn 0.0000 0.0000 1.0000
vn -1.0000 0.0000 0.0000
vn 0.7071 0.0000 0.7071
vn -0.7071 0.0000 0.7071
vn 0.5690 0.2507 -0.7832
vn 0.9207 0.2507 0.2991
vn 0.0000 0.2507 0.9681
vn 0.9500 0.0465 0.3087
vn -0.9207 0.2507 0.2991
vn -0.5690 0.2507 -0.7832
vn 0.0000 -0.2891 0.9573
vn -0.9494 0.0588 0.3085
vn -0.5871 0.0465 -0.8081
vn 0.5871 0.0465 -0.8081
vn -0.0000 0.0465 0.9989
vn -0.9500 0.0465 0.3087
vn -0.9104 -0.2891 0.2958
vn 0.9104 -0.2891 0.2958
vn -0.5627 -0.2891 -0.7745
vn 0.5627 -0.2891 -0.7745
vn 0.9494 0.0588 0.3085
vn -0.5868 0.0588 -0.8076
vn 0.0000 0.0588 0.9983
vn 0.5868 0.0588 -0.8076
usemtl None
s off
f 1/1/1 2/2/1 3/3/1
f 3/4/2 2/2/2 4/5/2
f 4/6/3 2/2/3 5/7/3
f 5/8/4 2/2/4 1/9/4
f 7/10/5 8/11/5 6/12/5
f 11/13/6 12/14/6 10/15/6
f 15/16/7 16/17/7 14/18/7
f 19/19/8 20/20/8 18/21/8
f 23/22/9 24/23/9 22/24/9
f 25/25/10 26/26/10 24/27/10
f 27/28/11 28/29/11 26/30/11
f 25/25/12 34/31/12 27/32/12
f 29/33/13 30/34/13 28/35/13
f 31/36/14 22/37/14 30/38/14
f 28/29/15 39/39/15 26/30/15
f 36/40/16 35/41/16 42/42/16
f 31/36/17 33/43/17 23/44/17
f 23/22/18 32/45/18 25/46/18
f 27/28/19 35/47/19 29/48/19
f 29/33/20 36/40/20 31/49/20
f 30/34/21 40/50/21 28/35/21
f 26/26/22 38/51/22 24/27/22
f 22/37/23 41/52/23 30/38/23
f 22/24/24 38/53/24 37/54/24
f 34/31/25 32/55/25 42/56/25
f 33/43/26 36/57/26 42/58/26
f 35/47/27 34/59/27 42/60/27
f 32/45/28 33/61/28 42/62/28
f 7/10/5 9/63/5 8/11/5
f 11/13/6 13/64/6 12/14/6
f 15/16/7 17/65/7 16/17/7
f 19/19/8 21/66/8 20/20/8
f 23/22/9 25/46/9 24/23/9
f 25/25/10 27/32/10 26/26/10
f 27/28/11 29/48/11 28/29/11
f 25/25/12 32/55/12 34/31/12
f 29/33/13 31/49/13 30/34/13
f 31/36/14 23/44/14 22/37/14
f 28/29/15 40/67/15 39/39/15
f 31/36/17 36/57/17 33/43/17
f 23/22/18 33/61/18 32/45/18
f 27/28/19 34/59/19 35/47/19
f 29/33/20 35/41/20 36/40/20
f 30/34/21 41/68/21 40/50/21
f 26/26/22 39/69/22 38/51/22
f 22/37/23 37/70/23 41/52/23
f 22/24/24 24/23/24 38/53/24
